<svg width="585" height="127" viewBox="0 0 585 127" fill="none" xmlns="http://www.w3.org/2000/svg">
<path d="M406.186 126.084C369.806 126.084 342.35 101.201 342.35 63.4489C342.35 26.0397 368.776 0.642578 406.357 0.642578C442.516 0.642578 461.041 27.4902 463.156 45.1127C463.288 46.2189 462.396 47.1467 461.282 47.1467H434.414C433.549 47.1467 432.795 46.5771 432.511 45.76C429.55 37.2131 421.714 26.7261 404.47 26.7261C385.593 26.7261 373.924 42.5134 373.924 63.4489C373.924 85.0707 385.422 100 405.499 100C423.619 100 429.537 87.4925 431.736 78.8713C431.963 77.9844 432.749 77.3486 433.665 77.3486H460.392C461.518 77.3486 462.413 78.2999 462.3 79.4203C460.186 100.365 446.045 126.084 406.186 126.084Z" fill="black"/>
<path d="M81.5162 45.6023H31.2368L31.0731 5.15814C31.0687 4.08459 30.1972 3.2166 29.1237 3.2166H2.81271C1.73607 3.2166 0.863281 4.08939 0.863281 5.16604V121.388C0.863281 122.465 1.73607 123.338 2.81271 123.338H29.1224C30.1964 123.338 31.0682 122.469 31.0718 121.395L31.1516 97.8549C31.1987 83.9569 42.4785 72.7154 56.3765 72.7154C70.2745 72.7154 81.5543 83.9569 81.6014 97.8549L81.6812 121.395C81.6848 122.469 82.5565 123.338 83.6306 123.338H110.112C111.188 123.338 112.061 122.465 112.061 121.388V5.16603C112.061 4.08939 111.188 3.2166 110.112 3.2166H83.6293C82.5558 3.2166 81.6842 4.08459 81.6799 5.15814L81.5162 45.6023Z" fill="black"/>
<path d="M306.539 123.338C307.616 123.338 308.489 122.465 308.489 121.388V30.1581H343.09C344.167 30.1581 345.04 29.2853 345.04 28.2087V5.16603C345.04 4.08939 344.167 3.2166 343.09 3.2166H242.655C241.579 3.2166 240.706 4.08939 240.706 5.16603V28.2087C240.706 29.2853 241.579 30.1581 242.655 30.1581H278.115V121.388C278.115 122.465 278.988 123.338 280.065 123.338H306.539Z" fill="black"/>
<path d="M503.484 45.6023H553.763L553.927 5.15814C553.931 4.08459 554.803 3.2166 555.876 3.2166H582.187C583.264 3.2166 584.137 4.08939 584.137 5.16604V121.388C584.137 122.465 583.264 123.338 582.187 123.338H555.878C554.804 123.338 553.932 122.469 553.928 121.395L553.848 97.8549C553.801 83.9569 542.521 72.7154 528.623 72.7154C514.725 72.7154 503.446 83.9569 503.399 97.8549L503.319 121.395C503.315 122.469 502.443 123.338 501.369 123.338H474.888C473.811 123.338 472.939 122.465 472.939 121.388V5.16603C472.939 4.08939 473.811 3.2166 474.888 3.2166H501.371C502.444 3.2166 503.316 4.08459 503.32 5.15814L503.484 45.6023Z" fill="black"/>
<path fill-rule="evenodd" clip-rule="evenodd" d="M135.078 124.441C118.268 116.597 117.4 81.7313 133.139 47.9994C141.635 29.791 159.979 0.479037 184.251 0.643668C209.222 0.447245 227.07 28.0118 236.397 47.9994C243.381 62.9679 246.951 77.2887 246.611 90.5251C246.29 102.956 242.187 117.496 229.088 123.608C215.99 129.719 202.211 123.523 192.479 115.783C187.799 112.061 183.28 107.433 179.088 102.098C164.529 120.636 147.28 130.134 135.078 124.441ZM194.013 77.5653C193.59 78.4712 193.16 79.368 192.722 80.2553C197.326 87.5909 202.431 93.3648 207.257 97.2029C214.808 103.209 218.528 102.338 219.05 102.094C219.572 101.851 222.63 99.559 222.878 89.914C223.106 81.0746 220.651 69.238 214.883 56.8752C211.893 50.4668 208.439 44.8316 204.842 40.1233C203.664 51.6197 200.067 64.5904 194.013 77.5653Z" fill="black"/>
</svg>
